# xmcd
#
# Track frame offsets:
#	150
#	20519
#	38294
#	60485
#	83395
#	107281
#	130196
#	144916
#	170296
#	189908
#
# Disc length: 2787 seconds
# Revision: 0
# Processed by: cddbd v1.5.2PL0 Copyright (c) Steve Scherf et al.
# Submitted via: dBpowerAMP V12.0
#
DISCID=640ae10a
DTITLE=The Della Grants - Live Room Sessions
DYEAR=2018
DGENRE=Blues
TTITLE0=Lay My Head (Live)
TTITLE1=The River (Live)
TTITLE2=Sunrise (Live)
TTITLE3=Too Fast (Live)
TTITLE4=Fairground Soul (Live)
TTITLE5=Midnight Special (Live)
TTITLE6=William Clay (Live)
TTITLE7=More Than Pray (Live)
TTITLE8=Weaker Man (Live)
TTITLE9=Weaker Man (Live)
EXTD=
EXTT0=
EXTT1=
EXTT2=
EXTT3=
EXTT4=
EXTT5=
EXTT6=
EXTT7=
EXTT8=
EXTT9=
PLAYORDER=
